<?xml version="1.0" standalone="no"?>
<!DOCTYPE svg PUBLIC "-//W3C//DTD SVG 20010904//EN"
 "http://www.w3.org/TR/2001/REC-SVG-20010904/DTD/svg10.dtd">
<svg version="1.0" xmlns="http://www.w3.org/2000/svg"
 width="1280.000000pt" height="844.000000pt" viewBox="0 0 1280.000000 844.000000"
 preserveAspectRatio="xMidYMid meet">
<metadata>
Created by potrace 1.15, written by Peter Selinger 2001-2017
</metadata>
<g transform="translate(0.000000,844.000000) scale(0.100000,-0.100000)"
fill="#000000" stroke="none">
<path d="M5410 7913 c-13 -9 -33 -17 -45 -18 -20 0 -95 -59 -185 -145 -35 -34
-37 -39 -43 -119 -6 -81 -8 -86 -42 -113 -40 -33 -45 -64 -17 -98 25 -30 101
-29 198 4 59 20 118 11 149 -24 23 -25 40 -25 64 -1 10 10 49 28 87 41 38 12
95 33 126 46 32 13 62 24 68 24 22 0 122 -106 156 -165 19 -33 51 -81 70 -107
19 -27 31 -48 28 -48 -4 0 -1 -6 6 -14 6 -8 31 -52 54 -98 104 -202 124 -233
192 -306 39 -42 81 -97 94 -122 31 -61 139 -171 195 -199 25 -12 73 -52 107
-89 34 -37 126 -130 203 -207 l141 -140 3 -53 c4 -74 39 -134 96 -161 31 -14
45 -27 45 -40 0 -11 14 -29 30 -41 51 -36 40 -89 -69 -315 -39 -82 -71 -152
-71 -157 0 -5 -25 -35 -55 -66 -54 -55 -96 -110 -168 -217 -42 -62 -42 -62
-152 -120 -128 -68 -167 -93 -194 -127 -17 -21 -30 -28 -44 -24 -13 3 -37 -6
-65 -25 -24 -16 -66 -41 -93 -55 l-49 -24 -10 24 c-9 24 -13 25 -99 25 -64 0
-100 5 -123 17 -20 10 -45 14 -69 11 -33 -4 -46 0 -84 29 -55 43 -113 64 -174
64 -29 0 -57 7 -76 20 -16 11 -41 20 -54 20 -13 0 -57 18 -97 40 -66 36 -80
40 -143 40 -38 0 -82 5 -97 10 -15 6 -71 19 -123 30 -53 10 -108 23 -122 28
-14 6 -77 8 -142 6 l-117 -5 -137 46 c-75 25 -142 45 -149 45 -7 0 -72 20
-145 45 -73 25 -142 45 -154 45 -22 0 -168 51 -214 75 -37 18 -193 61 -256 69
-27 4 -113 23 -190 43 -77 19 -162 39 -190 43 -104 16 -332 80 -390 110 -37
19 -87 34 -130 40 -39 5 -138 18 -222 29 -84 11 -162 25 -174 31 -11 7 -46 16
-78 20 -139 21 -292 51 -361 71 -64 18 -180 27 -217 17 -4 -1 -22 6 -40 15
-21 11 -55 17 -101 17 -62 0 -73 3 -118 35 -27 19 -70 42 -96 51 -27 8 -52 22
-56 30 -13 23 -157 23 -179 1 -14 -14 -19 -14 -44 -1 -40 20 -264 27 -321 9
-91 -29 -164 -65 -186 -92 -12 -15 -43 -52 -67 -81 -43 -51 -59 -102 -36 -116
5 -3 12 -22 16 -42 3 -20 13 -47 21 -59 8 -13 14 -27 13 -31 -4 -25 3 -44 16
-44 17 0 18 -4 15 -87 -2 -54 3 -69 35 -127 56 -100 92 -118 248 -122 67 -2
147 -11 177 -19 30 -8 64 -15 75 -15 24 0 159 33 198 49 16 6 39 8 53 5 17 -4
32 1 54 20 39 32 94 48 127 35 16 -6 31 -5 45 2 28 15 128 6 159 -14 13 -9 56
-28 94 -42 39 -14 95 -36 125 -50 98 -43 242 -100 380 -149 69 -25 160 -68
274 -130 38 -20 103 -51 145 -67 116 -47 384 -115 501 -128 58 -6 141 -16 185
-22 44 -5 109 -10 145 -11 36 0 92 -7 125 -15 33 -8 78 -18 100 -22 41 -8 65
-18 215 -88 47 -22 96 -43 110 -47 105 -29 146 -57 227 -149 45 -51 108 -127
141 -169 68 -88 199 -194 247 -200 23 -2 37 -14 62 -53 18 -27 52 -74 75 -103
35 -43 46 -67 58 -126 11 -51 26 -88 53 -127 20 -30 37 -59 37 -65 0 -6 -25
-14 -56 -18 -125 -15 -343 -89 -414 -141 -84 -62 -251 -248 -288 -320 -11 -22
-44 -62 -73 -90 -91 -86 -160 -159 -175 -187 -8 -15 -55 -80 -105 -145 -125
-164 -251 -327 -304 -396 -42 -55 -115 -120 -162 -145 -12 -7 -37 -12 -57 -12
-19 0 -37 -4 -40 -9 -4 -5 -29 -12 -58 -16 -29 -4 -76 -16 -107 -26 -30 -11
-65 -19 -78 -19 -13 0 -33 -5 -44 -11 -15 -8 -40 -7 -89 2 -45 8 -81 9 -107 3
-21 -5 -96 -7 -168 -3 -139 5 -254 -6 -404 -42 -48 -11 -95 -22 -106 -24 -39
-8 -147 -88 -171 -126 -27 -43 -29 -69 -12 -134 27 -100 111 -173 248 -215
201 -61 382 -77 544 -49 60 11 126 24 147 30 33 10 45 9 88 -10 54 -23 85 -19
76 9 -5 15 9 19 117 33 149 19 209 34 268 68 25 14 66 36 93 50 45 23 116 86
197 176 22 23 55 46 85 56 56 20 85 34 230 110 56 29 114 62 129 75 16 12 38
22 48 22 20 0 48 14 218 112 141 81 154 90 207 139 65 61 101 107 161 210 47
79 55 87 94 98 48 13 91 16 190 13 54 -2 72 -7 96 -27 37 -31 47 -31 107 0 27
15 63 25 84 25 103 -2 299 18 335 34 30 13 48 15 75 9 69 -17 324 35 477 98
17 7 38 10 46 6 22 -8 41 -96 33 -150 l-7 -45 39 8 c21 4 49 12 63 19 52 24
359 97 502 120 32 5 62 12 68 16 6 4 57 13 113 20 169 24 161 21 226 88 68 70
108 129 150 220 37 82 102 162 151 187 21 11 44 20 51 20 12 0 51 23 182 108
45 29 141 82 212 118 72 35 135 70 140 77 16 20 107 75 150 91 22 8 81 35 130
60 50 25 95 46 102 46 7 0 27 13 46 30 62 54 125 79 207 81 92 2 145 -12 187
-49 47 -43 95 -146 102 -217 l6 -60 55 -27 c52 -25 100 -70 100 -94 0 -6 20
-52 45 -103 25 -51 45 -98 45 -106 0 -25 57 -121 131 -220 89 -120 129 -184
129 -208 0 -11 9 -30 20 -44 11 -14 20 -32 20 -39 0 -35 131 -254 205 -343 44
-53 90 -109 103 -126 13 -16 80 -90 150 -164 70 -73 152 -168 183 -210 30 -42
128 -149 217 -238 89 -90 162 -167 162 -172 0 -16 93 -118 152 -166 31 -25 80
-77 109 -116 29 -38 57 -69 61 -69 5 0 19 -10 32 -23 38 -38 96 -59 134 -48
18 5 48 7 67 4 26 -4 49 2 92 23 44 22 69 28 105 25 25 -1 55 2 65 7 14 8 35
5 78 -9 75 -25 94 -24 134 5 20 15 40 22 53 18 12 -3 53 -36 93 -73 82 -78
110 -90 143 -59 28 26 27 28 -8 70 -17 19 -30 43 -30 53 0 21 -7 25 121 -61
48 -33 70 -42 89 -37 23 6 45 25 52 47 2 5 18 3 36 -3 28 -10 36 -9 52 6 26
24 25 40 -2 60 -98 68 -168 109 -258 152 -117 56 -150 67 -265 83 -44 6 -103
22 -132 35 -28 13 -53 22 -55 20 -2 -3 -84 0 -182 5 -206 12 -302 31 -312 64
-4 11 -37 53 -74 91 -37 39 -79 93 -94 120 -14 28 -30 57 -35 65 -74 120 -215
396 -352 690 -49 105 -142 268 -224 395 -29 45 -186 232 -205 245 -14 9 -77
115 -119 198 -80 158 -202 448 -204 482 0 8 -9 30 -19 48 -10 18 -18 40 -18
48 0 9 -6 30 -14 47 -22 52 -36 113 -43 184 -3 38 -11 77 -17 88 -10 19 -21
72 -47 220 -6 33 -18 69 -28 80 -30 33 -45 68 -42 102 5 59 -68 163 -114 163
-16 0 -25 6 -25 15 0 9 -11 26 -24 38 -14 14 -30 47 -40 87 -17 64 -57 140
-76 140 -5 0 -22 21 -37 48 -15 26 -40 64 -56 84 -23 29 -31 52 -38 110 -25
211 -23 204 -59 235 -18 15 -56 43 -84 61 -93 61 -94 62 -89 150 3 42 11 100
20 127 32 105 88 253 120 315 18 35 33 71 33 80 0 23 27 97 60 165 73 153 77
169 78 322 0 79 -3 156 -8 173 -5 18 -4 40 2 57 8 23 6 37 -11 74 -12 25 -32
51 -44 56 -72 33 -100 43 -123 43 -21 0 -23 3 -14 19 14 28 12 36 -5 21 -13
-11 -15 -8 -16 16 -1 16 -1 37 0 47 3 20 -25 23 -32 3 -5 -12 -11 -13 -36 -3
-24 9 -30 16 -25 32 5 18 3 18 -15 -4 l-21 -23 0 25 c0 14 7 33 17 42 15 16
15 17 -3 14 -10 -2 -24 0 -30 3 -6 4 -20 -2 -32 -12 -27 -26 -28 -26 -36 11
-5 26 -9 29 -20 20 -8 -6 -19 -25 -26 -41 -15 -35 -32 -37 -85 -9 -31 16 -57
20 -113 19 -41 0 -79 3 -85 8 -22 17 -70 20 -104 5 -31 -12 -38 -12 -58 1 -24
16 -60 12 -85 -9 -8 -7 -26 -16 -40 -19 -41 -12 -70 -29 -70 -42 0 -6 -21 -15
-47 -19 -35 -5 -58 -16 -83 -40 -19 -18 -48 -36 -64 -39 -39 -10 -116 -55
-117 -69 -1 -7 -2 -27 -4 -45 -1 -18 -9 -41 -17 -50 -19 -22 -18 -133 1 -156
10 -12 22 -15 42 -11 22 5 29 2 34 -15 10 -33 -5 -141 -26 -180 -11 -20 -19
-55 -19 -82 0 -27 -1 -48 -3 -48 -1 0 -40 16 -86 35 -80 34 -189 66 -293 85
-27 6 -62 19 -78 30 -15 11 -33 20 -39 20 -17 0 -79 38 -114 69 -17 16 -75 67
-127 114 -82 73 -180 190 -180 216 0 4 -22 37 -49 72 -77 101 -307 315 -422
392 -172 116 -180 123 -319 256 -140 133 -176 162 -241 190 -30 13 -81 36
-113 52 -32 16 -68 29 -80 29 -12 0 -53 12 -91 26 -39 14 -83 29 -100 33 -16
4 -44 15 -62 24 -40 21 -62 21 -93 0z"/>
<path d="M2825 7525 c-136 -42 -244 -111 -353 -225 -49 -50 -76 -92 -121 -185
-69 -140 -81 -184 -81 -298 0 -148 15 -202 111 -393 54 -106 91 -157 136 -185
18 -11 45 -32 61 -47 16 -15 73 -51 127 -81 150 -81 325 -111 466 -77 190 46
313 111 428 229 72 73 117 145 159 257 71 184 72 267 6 483 -45 148 -104 243
-208 335 -147 132 -282 189 -461 198 -55 2 -122 6 -150 8 -32 2 -75 -5 -120
-19z"/>
</g>
</svg>
