<?xml version="1.0" standalone="no"?>
<!DOCTYPE svg PUBLIC "-//W3C//DTD SVG 20010904//EN"
 "http://www.w3.org/TR/2001/REC-SVG-20010904/DTD/svg10.dtd">
<svg version="1.0" xmlns="http://www.w3.org/2000/svg"
 width="300.000000pt" height="300.000000pt" viewBox="0 0 300.000000 300.000000"
 preserveAspectRatio="xMidYMid meet">
<metadata>
Created by potrace 1.16, written by Peter Selinger 2001-2019
</metadata>
<g transform="translate(0.000000,300.000000) scale(0.100000,-0.100000)"
fill="#000000" stroke="none">
<path d="M1305 2994 c-349 -53 -650 -205 -886 -450 -202 -210 -332 -454 -395
-745 -27 -121 -27 -477 0 -599 66 -303 195 -539 416 -761 220 -220 454 -348
760 -415 68 -15 127 -19 300 -19 173 0 232 4 300 19 306 67 540 195 761 415
221 222 352 461 416 761 26 122 26 478 0 600 -64 299 -196 540 -417 760 -215
215 -444 343 -739 412 -67 15 -130 20 -286 23 -110 2 -213 1 -230 -1z m225
-1323 c0 -331 3 -431 13 -438 6 -5 40 -20 75 -33 34 -12 62 -26 62 -31 0 -14
-50 -143 -59 -152 -7 -7 -161 50 -201 76 -10 5 -26 24 -36 41 -18 29 -19 63
-22 485 -2 249 -1 459 2 467 4 10 26 14 86 14 l80 0 0 -429z m735 223 c74 -19
135 -54 198 -113 91 -84 137 -198 136 -329 0 -74 -27 -190 -42 -185 -4 2 -43
21 -87 43 -77 39 -80 41 -73 68 5 15 8 54 8 87 -2 196 -233 318 -397 210 l-37
-25 -65 72 -65 71 32 24 c112 84 257 113 392 77z m-1292 -9 c83 -22 133 -50
199 -113 56 -53 128 -173 128 -211 0 -11 -116 -66 -412 -195 l-411 -179 -18
24 c-33 44 -59 144 -59 228 0 135 50 252 145 340 48 44 144 96 203 110 59 14
163 12 225 -4z m141 -703 l67 -69 -31 -27 c-112 -94 -262 -128 -403 -91 -61
16 -137 51 -137 63 0 4 22 42 49 84 l49 77 54 -21 c72 -27 148 -21 220 20 29
16 55 30 58 31 3 0 36 -30 74 -67z"/>
<path d="M745 1676 c-55 -25 -107 -78 -129 -131 -17 -40 -31 -125 -21 -125 13
0 455 194 455 199 -1 11 -75 58 -109 69 -56 20 -140 15 -196 -12z"/>
</g>
</svg>
